<svg width="14" height="14" viewBox="0 0 14 14" fill="none" xmlns="http://www.w3.org/2000/svg">
<path d="M8.35001 5.84H9V4H7V6H8.35001V5.84Z" fill="white"/>
<path d="M12 4H10V5.84H12V4Z" fill="white"/>
<path d="M12 1H10V3H12V1Z" fill="white"/>
<path d="M3 7H1V9H3V7Z" fill="white"/>
<path d="M5.42999 10.87L5.75 10H4V12H6V11.07L5.42999 10.87Z" fill="white"/>
<path d="M3 10H1V12H3V10Z" fill="white"/>
<path d="M6 7H4V9H6V7Z" fill="white"/>
<path opacity="0.5" d="M4 3H2V5H4V3Z" fill="white"/>
<path opacity="0.5" d="M7 1H5V3H7V1Z" fill="white"/>
<path opacity="0.5" d="M2 0H0V2H2V0Z" fill="white"/>
<path fill-rule="evenodd" clip-rule="evenodd" d="M13.8 10.0197L13.3 8.64972L11.27 9.46973V7.21973H10.5H9.73V9.46973L7.7 8.64972L7.2 10.0197L9.28999 10.7397L7.97 12.4997L9.17999 13.3797L10.5 11.5097L11.82 13.3797L13.03 12.4997L11.71 10.7397L13.8 10.0197Z" fill="white"/>
</svg>
