<svg width="14" height="14" viewBox="0 0 14 14" fill="none" xmlns="http://www.w3.org/2000/svg">
<path d="M12 1H10V3H12V1Z" fill="white"/>
<path d="M10.52 4C11.05 4.16 11.55 4.39 12 4.7V4H10.52Z" fill="white"/>
<path d="M3 10H1V12H3V10Z" fill="white"/>
<path d="M4 10.5195V11.9995H4.7C4.39 11.5495 4.16 11.0495 4 10.5195Z" fill="white"/>
<path d="M3 7H1V9H3V7Z" fill="white"/>
<path opacity="0.5" d="M4 3H2V5H4V3Z" fill="white"/>
<path opacity="0.5" d="M7 1H5V3H7V1Z" fill="white"/>
<path opacity="0.5" d="M2 0H0V2H2V0Z" fill="white"/>
<path d="M9.74001 10.75C9.51001 10.85 9.26001 10.9 9.00001 10.9C7.95001 10.9 7.10001 10.05 7.10001 9C7.10001 8.49 7.30001 8.03 7.63001 7.69H7.22001L6.78001 7C6.30001 7.53 6.01001 8.23001 6.01001 8.99001C6.01001 10.65 7.35001 11.99 9.01001 11.99C9.45001 11.99 9.87001 11.89 10.25 11.71L9.75001 10.74L9.74001 10.75Z" fill="white"/>
<path d="M8.26 7.24977C8.49 7.14977 8.74 7.09978 9 7.09978C10.05 7.09978 10.9 7.94977 10.9 8.99977C10.9 9.50977 10.7 9.96977 10.37 10.3098H10.78L11.22 10.9998C11.7 10.4698 11.99 9.76977 11.99 9.00977C11.99 7.34977 10.65 6.00977 8.99 6.00977C8.55 6.00977 8.13 6.10976 7.75 6.28976L8.25 7.25977L8.26 7.24977Z" fill="white"/>
<path d="M12.02 8.99969H11.03H9.45001L11.22 11.3797L13.48 8.92969L12.02 8.99969Z" fill="white"/>
<path d="M4.51999 9.07013L5.97999 9.00012H6.96999H8.54999L6.77999 6.62012L4.51999 9.07013Z" fill="white"/>
</svg>
