<svg width="14" height="14" viewBox="0 0 14 14" fill="none" xmlns="http://www.w3.org/2000/svg">
<g clip-path="url(#clip0_338_1494)">
<path fill-rule="evenodd" clip-rule="evenodd" d="M8.24425 0H14L10.8431 6.31376C10.73 6.30461 10.6155 6.29994 10.5 6.29994C9.75 6.29994 9.0459 6.49654 8.43643 6.84102L10.9171 1.88204L8.24425 0ZM7.1208 8.00536L3.11885 0H0.00012207L7.00006 13.9999L7.35705 13.2859C6.69941 12.5445 6.30007 11.5689 6.30007 10.4999C6.30007 9.56579 6.60502 8.7029 7.1208 8.00536Z" fill="black"/>
<path d="M10.5 13.9999C12.439 13.9999 13.9999 12.439 13.9999 10.5C13.9999 8.56099 12.439 7 10.5 7C8.56099 7 7 8.56099 7 10.5C7 12.439 8.56099 13.9999 10.5 13.9999ZM12.9499 10.5H11.2V12.6H9.79998V10.5H8.04999L10.493 7.69999L12.9499 10.5Z" fill="black"/>
</g>
<defs>
<clipPath id="clip0_338_1494">
<rect width="13.9999" height="13.9999" fill="white"/>
</clipPath>
</defs>
</svg>
