<svg width="14" height="14" viewBox="0 0 14 14" fill="none" xmlns="http://www.w3.org/2000/svg">
<path d="M8.17 5.81023C8.43 5.52023 8.72 5.34024 9 5.21024V3.99023H7V5.99023H8.00999C8.05999 5.92023 8.12 5.85023 8.17 5.80023V5.81023Z" fill="white"/>
<path d="M7.37 7H7V7.66C7.13 7.42 7.25 7.2 7.37 7Z" fill="white"/>
<path d="M11.99 6V4H9.99001V5C10.25 5 11.14 5.06 11.87 5.87C11.9 5.9 11.94 5.96 11.98 6H11.99Z" fill="white"/>
<path d="M12 1H10V3H12V1Z" fill="white"/>
<path d="M5.83 10H4V12H4.91C5.13 11.49 5.46 10.77 5.83 10Z" fill="white"/>
<path d="M3 7H1V9H3V7Z" fill="white"/>
<path d="M3 10H1V12H3V10Z" fill="white"/>
<path d="M6 7H4V9H6V7Z" fill="white"/>
<path opacity="0.5" d="M4 3H2V5H4V3Z" fill="white"/>
<path opacity="0.5" d="M7 1H5V3H7V1Z" fill="white"/>
<path opacity="0.5" d="M2 0H0V2H2V0Z" fill="white"/>
<path d="M13.95 13.1302C13.93 13.0402 11.48 7.59022 10.77 6.87022C10.47 6.54022 10.12 6.49023 10 6.49023C9.88 6.49023 9.52999 6.54022 9.22999 6.87022C8.51999 7.58022 6.07 13.0402 6.05 13.1302C5.96 13.4802 6.01 13.6202 6.07 13.7102C6.12 13.8002 6.2 13.8702 6.3 13.9202C6.4 13.9702 6.50999 14.0002 6.61999 14.0002H13.39C13.5 14.0002 13.61 13.9702 13.71 13.9202C13.81 13.8702 13.88 13.8002 13.94 13.7102C14 13.6202 14.05 13.4802 13.96 13.1302H13.95ZM8.88 8.55023C8.88 8.25023 9.13 8.00023 9.44 8.00023H10.56C10.87 8.00023 11.12 8.25023 11.12 8.55023V10.2002C11.12 10.5002 10.87 10.7502 10.56 10.7502H9.44C9.13 10.7502 8.88 10.5002 8.88 10.2002V8.55023ZM10.69 13.5002H9.32C9.01 13.5002 8.75999 13.1102 8.75999 12.6202C8.75999 12.1302 9.01 11.7402 9.32 11.7402H10.69C11 11.7402 11.25 12.1302 11.25 12.6202C11.25 13.1102 11 13.5002 10.69 13.5002Z" fill="#FFB800"/>
</svg>
